<svg width="70" height="34" viewBox="0 0 70 34" fill="none" xmlns="http://www.w3.org/2000/svg">
<path d="M63.4497 0.00105676C61.7107 -0.0282421 60.0197 0.573554 58.6898 1.69469L58.3219 0.395943H55.0998V16.7585H59.2047V7.86665C59.1028 5.86473 60.6432 4.15943 62.6451 4.05779C62.7242 4.05364 62.8033 4.05234 62.8824 4.05338C64.77 4.05338 65.896 5.38583 65.896 7.62992V16.7639H69.9953V7.33823C69.9953 2.89231 67.4292 0.0233578 63.4554 0.0233578L63.4497 0.00105676ZM29.96 8.56075C29.96 11.1728 28.2609 13.0684 25.9225 13.0684C23.584 13.0684 21.8849 11.173 21.8849 8.56075C21.8849 5.94848 23.583 4.05649 25.9225 4.05649C28.262 4.05649 29.96 5.94511 29.96 8.56075ZM25.9212 0.00105676C21.3378 0.0539503 17.6651 3.81225 17.718 8.39584C17.7188 8.45081 17.7198 8.50578 17.7216 8.56075C17.5235 13.0886 21.0335 16.92 25.5613 17.1181C30.0891 17.3164 33.9206 13.8063 34.1187 9.27844C34.129 9.03938 34.129 8.7998 34.1187 8.56075C34.2626 3.97923 30.6655 0.148592 26.084 0.00443072C26.0298 0.00261575 25.9754 0.00157532 25.9212 0.00105676ZM48.4398 8.56075C48.4398 11.1728 46.7408 13.0684 44.4023 13.0684C42.0638 13.0684 40.3648 11.173 40.3648 8.56075C40.3648 5.94848 42.0638 4.05649 44.4023 4.05649C46.6936 4.10991 48.5075 6.0107 48.4541 8.30198C48.452 8.38832 48.4474 8.47466 48.4398 8.56075ZM44.401 0.00105676C39.8177 0.0539503 36.1449 3.81251 36.1978 8.39584C36.1984 8.45055 36.1996 8.505 36.2015 8.55971C35.9964 13.086 39.4995 16.9218 44.0258 17.1269C48.5524 17.332 52.3879 13.8291 52.593 9.30255C52.6042 9.05493 52.6042 8.80706 52.593 8.55971C52.7408 3.9826 49.15 0.152481 44.5732 0.00494979C44.5135 0.00313482 44.4542 0.00183461 44.3945 0.00105676H44.4013H44.401ZM8.35532 0.00105676C6.61424 -0.0287607 4.92113 0.573295 3.58972 1.69573L3.22283 0.395943H0.000732422V16.7585H4.10103V7.86665C3.99913 5.86473 5.53952 4.15943 7.54144 4.05779C7.62 4.0539 7.69882 4.05234 7.77738 4.05338C9.66392 4.05675 10.79 5.3848 10.79 7.62785V16.7618H14.8903V7.33848C14.8903 2.89257 12.3218 0.0236174 8.34832 0.0236174L8.35507 0.0013163L8.35532 0.00105676Z" fill="black"/>
<rect y="17.9535" width="70" height="16" rx="3" fill="#2A2C2C"/>
<path d="M67.4105 28.9016V22.7079C67.4105 22.0066 67.955 21.4328 68.6444 21.3851V21.3905C68.6444 20.3523 67.8028 19.5104 66.7643 19.5104L3.23162 19.5143C2.19345 19.5143 1.35156 20.356 1.35156 21.3944V21.3889C2.04073 21.4367 2.58548 22.0104 2.58548 22.7118V28.9055C2.58548 29.6069 2.04099 30.1807 1.35156 30.2284V30.5196C1.35156 31.5577 2.19319 32.3996 3.23162 32.3996L66.7643 32.3957C67.8028 32.3957 68.6444 31.5541 68.6444 30.5157V30.2245C67.9552 30.1768 67.4105 29.603 67.4105 28.9016Z" fill="#D22D29"/>
<path d="M67.4105 28.9016V22.7079C67.4105 22.0066 67.955 21.4328 68.6444 21.3851V21.3905C68.6444 20.3523 67.8028 19.5104 66.7643 19.5104L3.23162 19.5143C2.19345 19.5143 1.35156 20.356 1.35156 21.3944V21.3889C2.04073 21.4367 2.58548 22.0104 2.58548 22.7118V28.9055C2.58548 29.6069 2.04099 30.1807 1.35156 30.2284V30.5196C1.35156 31.5577 2.19319 32.3996 3.23162 32.3996L66.7643 32.3957C67.8028 32.3957 68.6444 31.5541 68.6444 30.5157V30.2245C67.9552 30.1768 67.4105 29.603 67.4105 28.9016Z" fill="#D22D29"/>
<path d="M67.4105 28.9016V22.7079C67.4105 22.0066 67.955 21.4328 68.6444 21.3851V21.3905C68.6444 20.3523 67.8028 19.5104 66.7643 19.5104L3.23162 19.5143C2.19345 19.5143 1.35156 20.356 1.35156 21.3944V21.3889C2.04073 21.4367 2.58548 22.0104 2.58548 22.7118V28.9055C2.58548 29.6069 2.04099 30.1807 1.35156 30.2284V30.5196C1.35156 31.5577 2.19319 32.3996 3.23162 32.3996L66.7643 32.3957C67.8028 32.3957 68.6444 31.5541 68.6444 30.5157V30.2245C67.9552 30.1768 67.4105 29.603 67.4105 28.9016Z" fill="#D22D29"/>
<path d="M67.4105 23.0088V28.902C67.4105 29.6034 67.955 30.1772 68.6442 30.2249V30.5251C68.6442 30.5384 68.6439 30.5516 68.6437 30.5646C68.6431 30.5804 68.6426 30.5962 68.6418 30.612C68.6411 30.6278 68.6403 30.6434 68.639 30.6592C68.6379 30.6748 68.6364 30.6898 68.6351 30.7048C68.6335 30.7196 68.632 30.7344 68.6302 30.7492C68.6284 30.764 68.6265 30.7785 68.6242 30.7932C68.4896 31.7 67.7082 32.3959 66.7644 32.3959L34.9981 32.398L3.23162 32.3959C2.28783 32.3959 1.5061 31.7 1.37153 30.7932C1.36738 30.764 1.36374 30.7344 1.36063 30.7046C1.35934 30.6895 1.35778 30.6745 1.35675 30.6592C1.35571 30.6434 1.35467 30.6276 1.35389 30.6118C1.35311 30.5959 1.35234 30.5801 1.35208 30.5643C1.35208 30.55 1.35156 30.5358 1.35156 30.5213V30.2288C2.04099 30.1811 2.58548 29.6073 2.58548 28.9059V23.0049C2.58548 22.3036 2.04099 21.7295 1.35156 21.6821V21.3893C1.35156 21.3748 1.35182 21.3606 1.35208 21.3463C1.35234 21.3305 1.35311 21.3147 1.35389 21.2989C1.35467 21.283 1.35571 21.2672 1.35675 21.2517C1.35778 21.2361 1.35934 21.2211 1.36063 21.206C1.36219 21.1913 1.36375 21.1765 1.36556 21.1617C1.36738 21.1467 1.36945 21.1321 1.37153 21.1176C1.37153 21.1176 1.37153 21.1176 1.37153 21.1174C1.5061 20.2106 2.28783 19.5147 3.23162 19.5147L34.9981 19.5129L66.7644 19.5147C67.7082 19.5147 68.4896 20.2106 68.6242 21.1174C68.6284 21.1467 68.632 21.1762 68.6351 21.206C68.6364 21.2211 68.6379 21.2361 68.639 21.2514C68.6403 21.2672 68.6413 21.283 68.6418 21.2989C68.6426 21.3147 68.6431 21.3305 68.6437 21.3463C68.6439 21.3593 68.6442 21.3722 68.6442 21.3855V21.686C67.955 21.7334 67.4105 22.3072 67.4105 23.0088Z" fill="#D22D29"/>
<path d="M34.9977 32.3982L3.23124 32.4C2.2859 32.4 1.50313 31.702 1.37115 30.7935C1.50572 31.7002 2.28746 32.3961 3.23124 32.3961L34.9977 32.3982Z" fill="#D22D29"/>
<path d="M68.6239 21.117C68.4893 20.2102 67.7078 19.5143 66.764 19.5143L34.9978 19.5125L66.764 19.5104C67.7091 19.5104 68.4919 20.2084 68.6239 21.117Z" fill="#D22D29"/>
<path d="M34.9977 19.5125L3.23124 19.5143C2.28746 19.5143 1.50572 20.2102 1.37115 21.117C1.50313 20.2082 2.28616 19.5104 3.23124 19.5104L34.9977 19.5125Z" fill="#D22D29"/>
<path d="M68.6239 30.7937C68.4916 31.7022 67.7091 32.4 66.764 32.4L34.9978 32.3981L66.764 32.3961C67.7078 32.3961 68.4893 31.7002 68.6239 30.7937Z" fill="#D22D29"/>
<path d="M7.11224 21.9292H9.76885L10.7349 24.7585L13.2191 21.9292H16.1749L14.0128 29.9799H11.3331L12.4026 25.989L9.78025 28.8528H9.73437L8.65315 25.989L7.58361 29.9799H4.94983L7.11224 21.9292Z" fill="white"/>
<path d="M18.0579 21.9292H20.749L18.5868 29.9799H15.8958L18.0579 21.9292Z" fill="white"/>
<path d="M22.606 21.9292H25.1249L26.9534 25.7705L27.9884 21.9292H30.6567L28.4946 29.9799H26.1024L24.1933 25.9774L23.1121 29.9799H20.4438L22.606 21.9292Z" fill="white"/>
<path d="M31.0886 27.2427C31.0886 26.8286 31.1462 26.38 31.261 25.9431L32.3423 21.9292H35.0795L33.9524 26.1156C33.8948 26.3456 33.8604 26.5641 33.8604 26.7482C33.8604 27.4153 34.2513 27.7602 34.9644 27.7602C35.2978 27.7602 35.6084 27.6453 35.827 27.4268C36.0687 27.1854 36.2297 26.8747 36.4021 26.2538L37.5637 21.9292H40.3009L39.0242 26.6676C38.7367 27.7371 38.3226 28.5191 37.7592 29.0828C37.0003 29.842 35.8501 30.1409 34.5734 30.1409C32.3078 30.1409 31.0886 29.0597 31.0886 27.2427Z" fill="white"/>
<path d="M43.1989 24.2062H40.8298L41.4394 21.9292H48.8689L48.2593 24.2062H45.8902L44.3377 29.9799H41.6463L43.1989 24.2062Z" fill="white"/>
<path d="M50.0429 21.9292H56.909L56.3108 24.1372H52.0899L51.8714 24.954H55.8049L55.2871 26.8976H51.3538L51.1124 27.7716H55.3909L54.8041 29.9799H47.8807L50.0429 21.9292Z" fill="white"/>
<path d="M56.4382 28.6806L57.9794 26.8405C58.8996 27.6111 59.8426 27.979 60.6938 27.979C61.0387 27.979 61.2803 27.8525 61.2803 27.6225C61.2803 27.3694 61.1307 27.2891 59.9577 26.8519C58.4627 26.2999 57.7611 25.7707 57.7611 24.5863C57.7611 23.0337 59.1871 21.7687 61.3838 21.7687C62.8215 21.7687 64.0979 22.2287 64.972 22.9762L63.4308 24.8163C62.8212 24.3216 61.9586 23.9192 61.1076 23.9192C60.7625 23.9192 60.5211 24.0112 60.5211 24.2412C60.5211 24.4826 60.6938 24.5288 61.8093 24.9428C63.178 25.4489 64.0518 26.024 64.0518 27.2546C64.0518 28.8761 62.7178 30.1414 60.406 30.1414C58.8073 30.1414 57.4157 29.5663 56.4382 28.6809V28.6806Z" fill="white"/>
</svg>
