<svg width="58" height="5" viewBox="0 0 58 5" fill="none" xmlns="http://www.w3.org/2000/svg">
<path d="M5.53024 1.13424C5.96328 0.922596 6.84989 0.882451 7.33403 0.866034C7.34292 0.865648 7.35181 0.865262 7.36069 0.864879C7.47577 0.860764 7.58404 0.851412 7.71096 0.840503C8.01288 0.814973 8.42525 0.778806 9.28355 0.80011C9.53079 0.774197 9.77855 0.750719 10.0267 0.729979C12.7039 0.506336 15.383 0.503256 18.0522 0.583152C18.0859 0.581418 18.1202 0.579654 18.1548 0.577882C18.8246 0.543327 19.6483 0.506274 20.1728 0.554017C20.8328 0.614627 21.2826 0.676033 21.6528 0.729527C23.7644 0.831021 25.8695 0.946656 27.9728 1.01093C28.6342 1.03111 29.2905 1.0461 29.9502 1.05428C30.5607 1.06184 31.1621 1.06522 31.7704 1.06495C32.1249 1.03647 32.4629 1.00161 32.7728 0.969363C33.2098 0.924078 33.6005 0.884124 33.9237 0.874322C34.6984 0.850638 35.5766 0.92304 36.2285 0.97679C36.3345 0.985566 36.4347 0.993872 36.5275 1.00116C37.0436 0.988774 37.5673 0.97499 38.0834 0.960409C38.1176 0.973846 38.152 0.987835 38.1871 1.00217C38.6235 1.18103 39.171 1.18789 40.0245 1.19786C40.3953 1.20217 40.8263 1.20714 41.3362 1.22677C41.6661 1.23943 41.8299 1.3097 41.9666 1.36708C42.0066 1.38395 42.0442 1.39973 42.0822 1.41258C42.2128 1.45659 42.3517 1.41272 42.516 1.36086C42.7293 1.29356 42.9853 1.21268 43.3226 1.2926C44.3897 1.54699 44.8644 1.3867 45.2246 1.26573C45.33 1.23022 45.4269 1.19811 45.5231 1.18061C45.8369 1.12394 46.2844 1.18595 46.624 1.26865C46.8924 1.33429 47.4365 1.27382 47.8411 1.19464C47.9951 1.16473 48.2033 1.16467 48.4493 1.16455C48.7038 1.16442 48.999 1.16424 49.3158 1.1302C50.1081 1.04406 50.5307 1.00083 50.8714 0.966291C50.9686 0.95642 51.0591 0.947393 51.1496 0.937962C51.4381 0.908157 51.7854 0.882825 52.1432 0.856664C52.5702 0.825394 53.0056 0.792768 53.3376 0.750858C54.1884 0.783577 55.053 0.822798 55.9063 0.858733C56.3446 0.877494 56.7696 1.017 57.0871 1.254C57.4045 1.4912 57.5882 1.80489 57.5955 2.13418C57.6029 2.46344 57.4331 2.78519 57.124 3.03539C56.8149 3.28539 56.3919 3.44159 55.951 3.47534C55.0621 3.54283 54.1638 3.6069 53.2751 3.65692C52.1823 3.71794 51.0994 3.75825 50.0103 3.75945C49.2566 3.76028 48.4844 3.75119 47.7292 3.73407C47.6512 3.73231 47.5733 3.73038 47.4955 3.72845C46.8545 3.80673 46.2145 3.87621 45.7675 3.89901C45.3996 3.91786 45.126 3.87214 44.8946 3.83299C44.7351 3.80603 44.5942 3.78212 44.4515 3.78429C44.3749 3.78545 44.2703 3.7894 44.1443 3.79409C43.6334 3.81338 42.7508 3.84479 41.9578 3.75492C41.6075 3.7151 41.1935 3.64008 40.802 3.56825C40.2408 3.46553 39.7259 3.3694 39.458 3.39223C38.9915 3.43242 38.4607 3.38353 37.994 3.34016C37.5481 3.29877 37.1531 3.26243 36.9301 3.31353C36.6629 3.3746 36.4367 3.34403 36.1016 3.29874C35.87 3.26735 35.5796 3.22889 35.1898 3.20881C34.7392 3.18562 34.4226 3.13438 34.1539 3.09086C33.7719 3.02956 33.4847 2.98352 33.0566 3.05276C32.5818 3.1297 32.0853 3.17587 31.6937 3.14343C31.5157 3.12865 31.3121 3.12867 31.1008 3.12881C30.8208 3.12899 30.5286 3.12929 30.2577 3.09547C30.0355 3.06762 29.8527 3.00142 29.6912 2.94289C29.6408 2.92463 29.5924 2.90721 29.5456 2.89184C29.3691 2.89057 29.1928 2.88977 29.0168 2.88975C28.9882 2.89974 28.9582 2.91081 28.9268 2.92223C28.7704 2.97958 28.5736 3.04993 28.3334 3.08371C27.9528 3.13716 27.6208 3.09862 27.2715 3.05813C27.0011 3.02662 26.7132 2.99393 26.3875 3.00332C26.165 3.00972 25.9121 3.03478 25.6621 3.05988C25.2924 3.09715 24.9212 3.13453 24.6662 3.11045C24.5704 3.10142 24.4881 3.06129 24.4067 3.0214C24.4063 3.02115 24.406 3.02091 24.4056 3.02066C24.4001 3.01796 24.3945 3.01531 24.389 3.01262C23.7691 3.04365 23.145 3.07969 22.5245 3.11977C22.4708 3.13048 22.4166 3.14108 22.3629 3.15152C22.1005 3.20256 21.8462 3.25263 21.679 3.32197C21.4985 3.39709 21.0439 3.44485 20.5679 3.49721C20.2573 3.53143 19.9318 3.56763 19.6685 3.61349C19.5145 3.64029 19.3673 3.602 19.2159 3.56268C19.0746 3.52599 18.9296 3.48848 18.7726 3.50241C18.6938 3.5094 18.6099 3.52863 18.5186 3.54932C18.4386 3.56752 18.3541 3.58685 18.2654 3.59973C18.1831 3.61167 17.9986 3.59417 17.7625 3.57255C17.6166 3.55919 17.4509 3.54431 17.2774 3.5335C16.8228 3.57415 16.3611 3.61583 15.9058 3.65755C15.8119 3.69771 15.7312 3.74824 15.6684 3.81141C15.6234 3.85674 15.5857 3.91025 15.5471 3.96497C15.4945 4.03944 15.4402 4.11642 15.3636 4.17933C15.3034 4.2285 15.2307 4.25033 15.1805 4.23334C15.1571 4.22541 15.1387 4.2093 15.1219 4.19474C15.1028 4.17806 15.0857 4.16323 15.0657 4.16461C15.0513 4.16564 15.0369 4.17876 15.0191 4.19466C14.9908 4.22005 14.954 4.25284 14.8958 4.25673C14.6793 4.27121 14.4329 4.27361 14.192 4.27654C13.9242 4.27977 13.6627 4.28385 13.454 4.30529C13.2208 4.32924 12.8854 4.30331 12.55 4.27907C12.3161 4.26212 12.082 4.24605 11.8808 4.24709C11.684 4.24807 11.4821 4.28837 11.2871 4.32804C11.0531 4.37566 10.8287 4.42228 10.633 4.39752C10.5935 4.39248 10.5409 4.34655 10.4747 4.28918C10.4279 4.24852 10.3739 4.20209 10.3134 4.16023C10.0668 4.18083 9.82048 4.20016 9.57444 4.21853C9.56639 4.22607 9.55809 4.23375 9.54978 4.24159C9.54966 4.24177 9.54953 4.24194 9.5494 4.24211C9.36143 4.41902 9.10879 4.66088 8.70827 4.56974C8.6066 4.54657 8.53858 4.49209 8.47723 4.44308C8.41698 4.39495 8.36304 4.35192 8.29022 4.34917C8.20752 4.34608 8.11468 4.38896 8.0137 4.43577C7.87188 4.5015 7.71407 4.57522 7.54397 4.541C7.53235 4.53866 7.51985 4.53607 7.50685 4.53354C7.38372 4.50946 7.20014 4.4743 7.01128 4.38394C6.48458 4.4146 5.96062 4.44402 5.43286 4.47518C4.5554 4.52685 3.67664 4.58223 2.79946 4.65112C2.37228 4.68422 1.94349 4.60366 1.6027 4.41717C1.26202 4.23032 1.03722 3.95403 0.979316 3.63604C0.921475 3.31821 1.03535 2.97974 1.29834 2.68662C1.56117 2.39383 1.95227 2.17314 2.3812 2.06777C3.07942 1.8967 3.78298 1.73362 4.48602 1.58346C4.52238 1.57168 4.55894 1.56012 4.5954 1.549C4.86663 1.46629 5.11251 1.34213 5.35966 1.21867C5.41648 1.19031 5.47325 1.16197 5.53024 1.13424Z" fill="#F5A82A"/>
</svg>
