<svg width="155" height="12" viewBox="0 0 155 12" fill="none" xmlns="http://www.w3.org/2000/svg">
<path d="M1.341 8.793C1.167 8.793 1.011 8.694 0.873 8.496C0.735 8.298 0.666 8.043 0.666 7.731C0.666 7.389 0.711 7.023 0.801 6.633C0.897 6.243 1.014 5.847 1.152 5.445C1.29 5.037 1.425 4.644 1.557 4.266C1.587 4.188 1.629 4.131 1.683 4.095C1.743 4.053 1.833 4.032 1.953 4.032C2.169 4.032 2.277 4.137 2.277 4.347C2.277 4.395 2.253 4.503 2.205 4.671C2.157 4.839 2.094 5.046 2.016 5.292C1.944 5.538 1.869 5.805 1.791 6.093C1.713 6.375 1.644 6.66 1.584 6.948C1.524 7.236 1.482 7.503 1.458 7.749C1.554 7.647 1.662 7.491 1.782 7.281C1.908 7.071 2.043 6.834 2.187 6.57C2.331 6.3 2.481 6.03 2.637 5.76C2.793 5.484 2.949 5.232 3.105 5.004C3.267 4.77 3.423 4.584 3.573 4.446C3.729 4.302 3.873 4.23 4.005 4.23C4.197 4.23 4.359 4.29 4.491 4.41C4.629 4.524 4.734 4.728 4.806 5.022C4.884 5.31 4.923 5.718 4.923 6.246C4.923 6.528 4.95 6.792 5.004 7.038C5.064 7.284 5.157 7.482 5.283 7.632C5.415 7.776 5.583 7.848 5.787 7.848C6.093 7.848 6.366 7.794 6.606 7.686C6.846 7.572 7.053 7.446 7.227 7.308C7.407 7.164 7.557 7.038 7.677 6.93C7.797 6.816 7.89 6.759 7.956 6.759C8.094 6.759 8.163 6.831 8.163 6.975C8.163 7.035 8.118 7.131 8.028 7.263C7.944 7.389 7.824 7.533 7.668 7.695C7.518 7.851 7.344 8.004 7.146 8.154C6.954 8.298 6.747 8.418 6.525 8.514C6.309 8.61 6.09 8.658 5.868 8.658C5.454 8.658 5.115 8.577 4.851 8.415C4.593 8.253 4.401 7.986 4.275 7.614C4.155 7.242 4.095 6.744 4.095 6.12C4.095 5.778 4.074 5.529 4.032 5.373C3.996 5.211 3.927 5.103 3.825 5.049C3.753 5.175 3.66 5.355 3.546 5.589C3.432 5.817 3.3 6.072 3.15 6.354C3.006 6.636 2.853 6.921 2.691 7.209C2.535 7.491 2.376 7.752 2.214 7.992C2.052 8.232 1.896 8.427 1.746 8.577C1.596 8.721 1.461 8.793 1.341 8.793ZM8.69963 9.09C8.34563 9.09 8.06663 8.955 7.86263 8.685C7.65863 8.415 7.55663 8.064 7.55663 7.632C7.55663 7.476 7.57763 7.311 7.61963 7.137C7.66763 6.957 7.72763 6.795 7.79963 6.651C7.75763 6.609 7.72463 6.552 7.70063 6.48C7.67663 6.402 7.66463 6.306 7.66463 6.192C7.66463 5.838 7.72463 5.514 7.84463 5.22C7.96463 4.926 8.12363 4.671 8.32163 4.455C8.51963 4.233 8.73863 4.062 8.97863 3.942C9.22463 3.822 9.47363 3.762 9.72563 3.762C10.1396 3.762 10.4756 3.912 10.7336 4.212C10.9916 4.506 11.1206 4.956 11.1206 5.562C11.1206 5.88 11.0726 6.204 10.9766 6.534C10.8866 6.864 10.7606 7.182 10.5986 7.488C10.4426 7.794 10.2596 8.067 10.0496 8.307C9.84563 8.547 9.62663 8.739 9.39263 8.883C9.16463 9.021 8.93363 9.09 8.69963 9.09ZM8.39363 6.345C8.42963 6.393 8.44763 6.456 8.44763 6.534C8.44763 6.624 8.42963 6.714 8.39363 6.804C8.36363 6.894 8.33063 7.017 8.29463 7.173C8.25863 7.329 8.24063 7.551 8.24063 7.839C8.24063 8.127 8.35463 8.271 8.58263 8.271C8.83463 8.271 9.06863 8.172 9.28463 7.974C9.50063 7.77 9.69263 7.509 9.86063 7.191C10.0286 6.873 10.1576 6.534 10.2476 6.174C10.3436 5.808 10.3916 5.463 10.3916 5.139C10.3916 4.929 10.3526 4.782 10.2746 4.698C10.1966 4.608 10.0556 4.563 9.85163 4.563C9.64163 4.563 9.42263 4.635 9.19463 4.779C8.97263 4.917 8.78663 5.106 8.63663 5.346C8.48663 5.586 8.41163 5.856 8.41163 6.156C8.41163 6.222 8.40563 6.285 8.39363 6.345ZM11.765 6.12C11.603 6.108 11.528 6.003 11.54 5.805C11.546 5.757 11.579 5.7 11.639 5.634C11.699 5.562 11.768 5.523 11.846 5.517C12.032 5.499 12.26 5.472 12.53 5.436C12.806 5.394 13.109 5.346 13.439 5.292C13.499 4.998 13.571 4.689 13.655 4.365C13.739 4.041 13.832 3.726 13.934 3.42C14.036 3.108 14.144 2.826 14.258 2.574C14.372 2.322 14.492 2.124 14.618 1.98C14.684 1.914 14.744 1.869 14.798 1.845C14.852 1.815 14.9 1.8 14.942 1.8C15.026 1.8 15.092 1.836 15.14 1.908C15.194 1.98 15.221 2.061 15.221 2.151C15.221 2.199 15.212 2.247 15.194 2.295C15.074 2.631 14.945 3.045 14.807 3.537C14.669 4.029 14.522 4.566 14.366 5.148C14.918 5.058 15.47 4.962 16.022 4.86C16.574 4.758 17.048 4.665 17.444 4.581C17.558 4.533 17.645 4.542 17.705 4.608C17.771 4.674 17.804 4.74 17.804 4.806C17.804 4.89 17.78 4.953 17.732 4.995C17.69 5.037 17.645 5.073 17.597 5.103L17.588 5.112C17.468 5.16 17.288 5.217 17.048 5.283C16.808 5.343 16.532 5.409 16.22 5.481C15.908 5.547 15.575 5.613 15.221 5.679C14.873 5.745 14.528 5.805 14.186 5.859C14.048 6.387 13.907 6.93 13.763 7.488C13.625 8.04 13.487 8.583 13.349 9.117C13.289 9.333 13.22 9.468 13.142 9.522C13.07 9.582 12.992 9.612 12.908 9.612C12.812 9.612 12.728 9.576 12.656 9.504C12.59 9.432 12.581 9.285 12.629 9.063L13.286 5.994C12.926 6.048 12.608 6.087 12.332 6.111C12.062 6.135 11.873 6.138 11.765 6.12ZM20.387 6.12C20.225 6.108 20.15 6.003 20.162 5.805C20.168 5.757 20.201 5.7 20.261 5.634C20.321 5.562 20.39 5.523 20.468 5.517C20.654 5.499 20.882 5.472 21.152 5.436C21.428 5.394 21.731 5.346 22.061 5.292C22.121 4.998 22.193 4.689 22.277 4.365C22.361 4.041 22.454 3.726 22.556 3.42C22.658 3.108 22.766 2.826 22.88 2.574C22.994 2.322 23.114 2.124 23.24 1.98C23.306 1.914 23.366 1.869 23.42 1.845C23.474 1.815 23.522 1.8 23.564 1.8C23.648 1.8 23.714 1.836 23.762 1.908C23.816 1.98 23.843 2.061 23.843 2.151C23.843 2.199 23.834 2.247 23.816 2.295C23.696 2.631 23.567 3.045 23.429 3.537C23.291 4.029 23.144 4.566 22.988 5.148C23.54 5.058 24.092 4.962 24.644 4.86C25.196 4.758 25.67 4.665 26.066 4.581C26.18 4.533 26.267 4.542 26.327 4.608C26.393 4.674 26.426 4.74 26.426 4.806C26.426 4.89 26.402 4.953 26.354 4.995C26.312 5.037 26.267 5.073 26.219 5.103L26.21 5.112C26.09 5.16 25.91 5.217 25.67 5.283C25.43 5.343 25.154 5.409 24.842 5.481C24.53 5.547 24.197 5.613 23.843 5.679C23.495 5.745 23.15 5.805 22.808 5.859C22.67 6.387 22.529 6.93 22.385 7.488C22.247 8.04 22.109 8.583 21.971 9.117C21.911 9.333 21.842 9.468 21.764 9.522C21.692 9.582 21.614 9.612 21.53 9.612C21.434 9.612 21.35 9.576 21.278 9.504C21.212 9.432 21.203 9.285 21.251 9.063L21.908 5.994C21.548 6.048 21.23 6.087 20.954 6.111C20.684 6.135 20.495 6.138 20.387 6.12ZM25.7019 9.405C25.5699 9.405 25.4679 9.366 25.3959 9.288C25.3239 9.216 25.2879 9.033 25.2879 8.739C25.2879 8.469 25.3359 8.118 25.4319 7.686C25.5279 7.248 25.6569 6.762 25.8189 6.228C25.9809 5.694 26.1639 5.142 26.3679 4.572C26.5719 3.996 26.7849 3.432 27.0069 2.88C27.2349 2.322 27.4539 1.812 27.6639 1.35C27.7419 1.182 27.8229 1.065 27.9069 0.998999C27.9909 0.933 28.0899 0.9 28.2039 0.9C28.2819 0.9 28.3479 0.924 28.4019 0.972C28.4619 1.014 28.4919 1.086 28.4919 1.188C28.4919 1.224 28.4529 1.341 28.3749 1.539C28.3029 1.737 28.2009 1.998 28.0689 2.322C27.9429 2.646 27.8019 3.009 27.6459 3.411C27.4899 3.813 27.3309 4.236 27.1689 4.68C27.0069 5.124 26.8539 5.571 26.7099 6.021C26.5659 6.465 26.4429 6.891 26.3409 7.299C26.2389 7.707 26.1699 8.073 26.1339 8.397C26.2779 8.223 26.4429 8.001 26.6289 7.731C26.8149 7.461 27.0129 7.17 27.2229 6.858C27.4329 6.546 27.6459 6.237 27.8619 5.931C28.0779 5.625 28.2909 5.346 28.5009 5.094C28.7109 4.842 28.9059 4.641 29.0859 4.491C29.2719 4.335 29.4339 4.257 29.5719 4.257C29.7999 4.257 29.9829 4.329 30.1209 4.473C30.2649 4.611 30.3369 4.839 30.3369 5.157C30.3369 5.337 30.3009 5.553 30.2289 5.805C30.1629 6.057 30.0849 6.321 29.9949 6.597C29.9049 6.873 29.8239 7.137 29.7519 7.389C29.6859 7.641 29.6529 7.857 29.6529 8.037C29.6529 8.283 29.7459 8.406 29.9319 8.406C30.2199 8.406 30.5079 8.343 30.7959 8.217C31.0899 8.091 31.3689 7.935 31.6329 7.749C31.8969 7.557 32.1399 7.365 32.3619 7.173C32.5839 6.975 32.7729 6.807 32.9289 6.669C33.0969 6.519 33.2379 6.444 33.3519 6.444C33.4959 6.444 33.5679 6.519 33.5679 6.669C33.5679 6.711 33.5589 6.759 33.5409 6.813C33.5229 6.867 33.4749 6.936 33.3969 7.02C33.3009 7.128 33.1629 7.269 32.9829 7.443C32.8089 7.617 32.6049 7.803 32.3709 8.001C32.1429 8.199 31.8939 8.385 31.6239 8.559C31.3599 8.733 31.0869 8.877 30.8049 8.991C30.5289 9.099 30.2589 9.153 29.9949 9.153C29.6349 9.153 29.3559 9.051 29.1579 8.847C28.9659 8.637 28.8699 8.349 28.8699 7.983C28.8699 7.755 28.9059 7.479 28.9779 7.155C29.0499 6.831 29.1399 6.489 29.2479 6.129C29.3619 5.763 29.4759 5.406 29.5899 5.058C29.3979 5.19 29.1879 5.388 28.9599 5.652C28.7379 5.91 28.5039 6.204 28.2579 6.534C28.0119 6.858 27.7659 7.188 27.5199 7.524C27.2799 7.86 27.0459 8.172 26.8179 8.46C26.5959 8.742 26.3889 8.97 26.1969 9.144C26.0049 9.318 25.8399 9.405 25.7019 9.405ZM36.5179 5.121C36.5179 5.313 36.4579 5.502 36.3379 5.688C36.2179 5.868 36.0589 6.042 35.8609 6.21C35.6629 6.372 35.4439 6.525 35.2039 6.669C34.9639 6.813 34.7239 6.939 34.4839 7.047C34.2439 7.155 34.0249 7.242 33.8269 7.308C33.7789 7.542 33.7549 7.749 33.7549 7.929C33.7549 8.043 33.7819 8.124 33.8359 8.172C33.8899 8.22 33.9739 8.244 34.0879 8.244C34.3399 8.244 34.6069 8.199 34.8889 8.109C35.1709 8.019 35.4589 7.902 35.7529 7.758C36.0469 7.614 36.3289 7.461 36.5989 7.299C36.8689 7.137 37.1149 6.984 37.3369 6.84C37.5649 6.696 37.7539 6.579 37.9039 6.489C38.0539 6.399 38.1529 6.354 38.2009 6.354C38.2729 6.354 38.3269 6.378 38.3629 6.426C38.4049 6.468 38.4259 6.519 38.4259 6.579C38.4259 6.627 38.3509 6.72 38.2009 6.858C38.0569 6.996 37.8619 7.158 37.6159 7.344C37.3699 7.524 37.0939 7.71 36.7879 7.902C36.4819 8.094 36.1639 8.274 35.8339 8.442C35.5099 8.61 35.1949 8.745 34.8889 8.847C34.5889 8.949 34.3189 9 34.0789 9C33.7669 9 33.5239 8.883 33.3499 8.649C33.1759 8.415 33.0889 8.052 33.0889 7.56C33.0889 7.23 33.1309 6.897 33.2149 6.561C33.3049 6.225 33.4249 5.904 33.5749 5.598C33.7309 5.286 33.9019 5.01 34.0879 4.77C34.2799 4.524 34.4809 4.332 34.6909 4.194C34.9009 4.05 35.1049 3.978 35.3029 3.978C35.6809 3.978 35.9779 4.083 36.1939 4.293C36.4099 4.503 36.5179 4.779 36.5179 5.121ZM34.0159 6.615C34.2019 6.501 34.3939 6.381 34.5919 6.255C34.7899 6.129 34.9729 6 35.1409 5.868C35.3089 5.736 35.4439 5.598 35.5459 5.454C35.6539 5.304 35.7079 5.151 35.7079 4.995C35.7079 4.773 35.5879 4.662 35.3479 4.662C35.1979 4.662 35.0389 4.758 34.8709 4.95C34.7089 5.136 34.5529 5.379 34.4029 5.679C34.2529 5.979 34.1239 6.291 34.0159 6.615ZM46.2697 9.477C45.8797 9.477 45.5197 9.384 45.1897 9.198C44.8657 9.012 44.5717 8.772 44.3077 8.478C44.0497 8.184 43.8187 7.869 43.6147 7.533C43.4167 7.191 43.2457 6.87 43.1017 6.57C42.9997 7.056 42.9187 7.449 42.8587 7.749C42.8047 8.049 42.7597 8.277 42.7237 8.433C42.6937 8.589 42.6637 8.694 42.6337 8.748C42.6037 8.802 42.5647 8.829 42.5167 8.829C42.3847 8.829 42.2587 8.757 42.1387 8.613C42.0187 8.469 41.9587 8.283 41.9587 8.055C41.9587 7.815 42.0007 7.497 42.0847 7.101C42.1687 6.699 42.2797 6.255 42.4177 5.769C42.5617 5.277 42.7267 4.77 42.9127 4.248C43.0987 3.72 43.2907 3.207 43.4887 2.709C43.6927 2.205 43.8967 1.746 44.1007 1.332C44.2027 1.128 44.2897 0.996 44.3617 0.936C44.4397 0.876 44.5327 0.846 44.6407 0.846C44.8147 0.846 44.9017 0.927 44.9017 1.089C44.9017 1.149 44.8837 1.215 44.8477 1.287C44.8177 1.359 44.7847 1.44 44.7487 1.53C44.6407 1.794 44.5207 2.091 44.3887 2.421C44.2627 2.751 44.1337 3.096 44.0017 3.456C43.8757 3.816 43.7557 4.173 43.6417 4.527C43.5277 4.881 43.4287 5.208 43.3447 5.508C43.6027 5.328 43.9057 5.148 44.2537 4.968C44.6017 4.788 44.9617 4.626 45.3337 4.482C45.7057 4.332 46.0567 4.212 46.3867 4.122C46.7167 4.032 46.9897 3.987 47.2057 3.987C47.3197 3.987 47.4067 4.023 47.4667 4.095C47.5327 4.161 47.5657 4.236 47.5657 4.32C47.5657 4.386 47.5447 4.452 47.5027 4.518C47.4667 4.578 47.3887 4.632 47.2687 4.68C46.8727 4.818 46.4797 4.959 46.0897 5.103C45.6997 5.241 45.2917 5.391 44.8657 5.553C44.4457 5.709 43.9867 5.895 43.4887 6.111C43.6447 6.375 43.8277 6.66 44.0377 6.966C44.2477 7.266 44.4727 7.551 44.7127 7.821C44.9527 8.085 45.1987 8.304 45.4507 8.478C45.7027 8.646 45.9547 8.73 46.2067 8.73C46.5367 8.73 46.8547 8.661 47.1607 8.523C47.4667 8.385 47.7487 8.217 48.0067 8.019C48.2707 7.821 48.5017 7.629 48.6997 7.443C48.8977 7.251 49.0537 7.101 49.1677 6.993C49.2277 6.939 49.2817 6.903 49.3297 6.885C49.3837 6.861 49.4317 6.849 49.4737 6.849C49.5577 6.849 49.6147 6.894 49.6447 6.984C49.6807 7.068 49.6507 7.161 49.5547 7.263C49.4827 7.347 49.3717 7.476 49.2217 7.65C49.0717 7.824 48.8887 8.016 48.6727 8.226C48.4627 8.43 48.2287 8.628 47.9707 8.82C47.7187 9.012 47.4457 9.168 47.1517 9.288C46.8637 9.414 46.5697 9.477 46.2697 9.477ZM49.5473 9.045C49.4333 9.045 49.3313 9.003 49.2413 8.919C49.1513 8.829 49.1063 8.691 49.1063 8.505C49.1063 8.373 49.1243 8.19 49.1603 7.956C49.1963 7.716 49.2443 7.455 49.3043 7.173C49.3643 6.891 49.4273 6.612 49.4933 6.336C49.5653 6.054 49.6373 5.802 49.7093 5.58C49.7813 5.358 49.8443 5.193 49.8983 5.085C49.9463 5.001 49.9913 4.947 50.0333 4.923C50.0813 4.899 50.1263 4.887 50.1683 4.887C50.2523 4.887 50.3243 4.914 50.3843 4.968C50.4503 5.022 50.4833 5.127 50.4833 5.283C50.4833 5.373 50.4653 5.523 50.4293 5.733C50.3993 5.937 50.3573 6.177 50.3033 6.453C50.2553 6.723 50.2013 7.002 50.1413 7.29C50.0873 7.572 50.0333 7.842 49.9792 8.1C49.9253 8.358 49.8833 8.574 49.8533 8.748C49.8293 8.844 49.7873 8.919 49.7273 8.973C49.6733 9.021 49.6133 9.045 49.5473 9.045ZM50.4293 4.068C50.2913 4.068 50.1593 4.026 50.0333 3.942C49.9133 3.858 49.8533 3.723 49.8533 3.537C49.8533 3.381 49.8893 3.255 49.9613 3.159C50.0393 3.063 50.1293 2.994 50.2313 2.952C50.3393 2.904 50.4323 2.88 50.5103 2.88C50.5883 2.88 50.6753 2.898 50.7713 2.934C50.8733 2.964 50.9603 3.024 51.0322 3.114C51.1043 3.198 51.1403 3.324 51.1403 3.492C51.1403 3.606 51.1013 3.708 51.0233 3.798C50.9453 3.882 50.8493 3.948 50.7353 3.996C50.6273 4.044 50.5253 4.068 50.4293 4.068ZM52.4582 8.793C52.2842 8.793 52.1282 8.694 51.9902 8.496C51.8522 8.298 51.7832 8.043 51.7832 7.731C51.7832 7.389 51.8282 7.023 51.9182 6.633C52.0142 6.243 52.1312 5.847 52.2692 5.445C52.4072 5.037 52.5422 4.644 52.6742 4.266C52.7042 4.188 52.7462 4.131 52.8002 4.095C52.8602 4.053 52.9502 4.032 53.0702 4.032C53.2862 4.032 53.3942 4.137 53.3942 4.347C53.3942 4.395 53.3702 4.503 53.3222 4.671C53.2742 4.839 53.2112 5.046 53.1332 5.292C53.0612 5.538 52.9862 5.805 52.9082 6.093C52.8302 6.375 52.7612 6.66 52.7012 6.948C52.6412 7.236 52.5992 7.503 52.5752 7.749C52.6712 7.647 52.7792 7.491 52.8992 7.281C53.0252 7.071 53.1602 6.834 53.3042 6.57C53.4482 6.3 53.5982 6.03 53.7542 5.76C53.9102 5.484 54.0662 5.232 54.2222 5.004C54.3842 4.77 54.5402 4.584 54.6902 4.446C54.8462 4.302 54.9902 4.23 55.1222 4.23C55.3142 4.23 55.4762 4.29 55.6082 4.41C55.7462 4.524 55.8512 4.728 55.9232 5.022C56.0012 5.31 56.0402 5.718 56.0402 6.246C56.0402 6.528 56.0672 6.792 56.1212 7.038C56.1812 7.284 56.2742 7.482 56.4002 7.632C56.5322 7.776 56.7002 7.848 56.9042 7.848C57.2102 7.848 57.4832 7.794 57.7232 7.686C57.9632 7.572 58.1702 7.446 58.3442 7.308C58.5242 7.164 58.6742 7.038 58.7942 6.93C58.9142 6.816 59.0072 6.759 59.0732 6.759C59.2112 6.759 59.2802 6.831 59.2802 6.975C59.2802 7.035 59.2352 7.131 59.1452 7.263C59.0612 7.389 58.9412 7.533 58.7852 7.695C58.6352 7.851 58.4612 8.004 58.2632 8.154C58.0712 8.298 57.8642 8.418 57.6422 8.514C57.4262 8.61 57.2072 8.658 56.9852 8.658C56.5712 8.658 56.2322 8.577 55.9682 8.415C55.7102 8.253 55.5182 7.986 55.3922 7.614C55.2722 7.242 55.2122 6.744 55.2122 6.12C55.2122 5.778 55.1912 5.529 55.1492 5.373C55.1132 5.211 55.0442 5.103 54.9422 5.049C54.8702 5.175 54.7772 5.355 54.6632 5.589C54.5492 5.817 54.4172 6.072 54.2672 6.354C54.1232 6.636 53.9702 6.921 53.8082 7.209C53.6522 7.491 53.4932 7.752 53.3312 7.992C53.1692 8.232 53.0132 8.427 52.8632 8.577C52.7132 8.721 52.5782 8.793 52.4582 8.793ZM62.1669 4.473C62.3289 4.083 62.4819 3.681 62.6259 3.267C62.7759 2.853 62.9109 2.43 63.0309 1.998C63.0669 1.878 63.1209 1.782 63.1929 1.71C63.2709 1.632 63.3609 1.593 63.4629 1.593C63.5349 1.593 63.5949 1.62 63.6429 1.674C63.6969 1.728 63.7239 1.8 63.7239 1.89C63.7239 2.004 63.6789 2.202 63.5889 2.484C63.5049 2.766 63.3969 3.123 63.2649 3.555C63.1389 3.987 63.0099 4.485 62.8779 5.049C62.7519 5.607 62.6439 6.225 62.5539 6.903C62.4699 7.581 62.4279 8.304 62.4279 9.072C62.4279 9.24 62.3919 9.378 62.3199 9.486C62.2479 9.6 62.1609 9.657 62.0589 9.657C61.9989 9.657 61.9419 9.642 61.8879 9.612C61.8339 9.582 61.7859 9.51 61.7439 9.396C61.7079 9.288 61.6779 9.117 61.6539 8.883C61.6299 8.643 61.6179 8.319 61.6179 7.911C61.6179 7.599 61.6359 7.26 61.6719 6.894C61.3959 7.392 61.0959 7.827 60.7719 8.199C60.4539 8.565 60.1449 8.847 59.8449 9.045C59.5509 9.243 59.2989 9.342 59.0889 9.342C58.8309 9.342 58.6209 9.255 58.4589 9.081C58.3029 8.913 58.2249 8.661 58.2249 8.325C58.2249 8.031 58.2939 7.728 58.4319 7.416C58.5699 7.104 58.7529 6.798 58.9809 6.498C59.2089 6.192 59.4609 5.904 59.7369 5.634C60.0129 5.364 60.2889 5.127 60.5649 4.923C60.8469 4.713 61.1079 4.551 61.3479 4.437C61.5879 4.317 61.7829 4.257 61.9329 4.257C61.9929 4.257 62.0469 4.278 62.0949 4.32C62.1429 4.362 62.1669 4.413 62.1669 4.473ZM62.0499 4.752C62.0079 4.794 61.9569 4.836 61.8969 4.878C61.8369 4.92 61.7709 4.965 61.6989 5.013C61.4349 5.199 61.1439 5.415 60.8259 5.661C60.5139 5.901 60.2139 6.165 59.9259 6.453C59.6439 6.735 59.4129 7.032 59.2329 7.344C59.0529 7.656 58.9629 7.977 58.9629 8.307C58.9629 8.451 59.0349 8.523 59.1789 8.523C59.3769 8.523 59.5929 8.43 59.8269 8.244C60.0669 8.052 60.3129 7.788 60.5649 7.452C60.8169 7.11 61.0689 6.711 61.3209 6.255C61.5729 5.793 61.8159 5.292 62.0499 4.752ZM70.1478 11.313C69.8478 11.313 69.5718 11.292 69.3198 11.25C69.0738 11.214 68.8308 11.154 68.5908 11.07C68.3508 10.992 68.0898 10.89 67.8078 10.764C67.7238 10.722 67.6488 10.671 67.5828 10.611C67.5168 10.557 67.4838 10.494 67.4838 10.422C67.4838 10.332 67.5408 10.236 67.6548 10.134C67.7628 10.038 67.8648 9.99 67.9608 9.99C68.0628 9.99 68.1888 10.026 68.3388 10.098C68.4948 10.17 68.6748 10.254 68.8788 10.35C69.0828 10.452 69.3078 10.539 69.5538 10.611C69.8058 10.683 70.0758 10.719 70.3638 10.719C70.6758 10.719 70.9698 10.59 71.2458 10.332C71.5218 10.074 71.7468 9.702 71.9208 9.216C72.0948 8.736 72.1818 8.157 72.1818 7.479C72.1818 7.275 72.1758 7.05 72.1638 6.804C72.1578 6.552 72.1458 6.288 72.1278 6.012C71.9838 6.324 71.8218 6.633 71.6418 6.939C71.4678 7.245 71.2848 7.521 71.0928 7.767C70.9068 8.013 70.7118 8.211 70.5078 8.361C70.3098 8.505 70.1088 8.577 69.9048 8.577C69.6468 8.577 69.4608 8.511 69.3468 8.379C69.2328 8.247 69.1758 8.043 69.1758 7.767C69.1758 7.479 69.1968 7.167 69.2388 6.831C69.2808 6.495 69.3348 6.156 69.4008 5.814C69.4728 5.466 69.5568 5.136 69.6528 4.824C69.7488 4.512 69.8508 4.242 69.9588 4.014C70.0188 3.894 70.1088 3.834 70.2288 3.834C70.3128 3.834 70.3938 3.879 70.4718 3.969C70.5558 4.053 70.5978 4.164 70.5978 4.302C70.5978 4.41 70.5738 4.563 70.5258 4.761C70.4778 4.959 70.4178 5.184 70.3458 5.436C70.2738 5.688 70.2018 5.952 70.1298 6.228C70.0578 6.498 69.9978 6.765 69.9498 7.029C69.9018 7.287 69.8778 7.524 69.8778 7.74C69.8778 7.83 69.9378 7.875 70.0578 7.875C70.1238 7.875 70.2168 7.815 70.3368 7.695C70.4628 7.569 70.6008 7.407 70.7508 7.209C70.9068 7.005 71.0628 6.783 71.2188 6.543C71.3808 6.297 71.5368 6.054 71.6868 5.814C71.8368 5.568 71.9658 5.343 72.0738 5.139C72.0678 5.091 72.0648 5.046 72.0648 5.004C72.0648 4.962 72.0648 4.923 72.0648 4.887C72.0648 4.593 72.0948 4.41 72.1548 4.338C72.2208 4.26 72.3048 4.221 72.4068 4.221C72.5808 4.221 72.7038 4.26 72.7758 4.338C72.8478 4.416 72.8838 4.551 72.8838 4.743C72.8838 4.815 72.8748 4.893 72.8568 4.977C72.8388 5.055 72.8088 5.169 72.7668 5.319C72.8148 5.793 72.8538 6.219 72.8838 6.597C72.9198 6.975 72.9378 7.356 72.9378 7.74C72.9378 8.466 72.8208 9.096 72.5868 9.63C72.3588 10.164 72.0348 10.578 71.6148 10.872C71.2008 11.166 70.7118 11.313 70.1478 11.313ZM75.6723 9.09C75.3183 9.09 75.0393 8.955 74.8353 8.685C74.6313 8.415 74.5293 8.064 74.5293 7.632C74.5293 7.476 74.5503 7.311 74.5923 7.137C74.6403 6.957 74.7003 6.795 74.7723 6.651C74.7303 6.609 74.6973 6.552 74.6733 6.48C74.6493 6.402 74.6373 6.306 74.6373 6.192C74.6373 5.838 74.6973 5.514 74.8173 5.22C74.9373 4.926 75.0963 4.671 75.2943 4.455C75.4923 4.233 75.7113 4.062 75.9513 3.942C76.1973 3.822 76.4463 3.762 76.6983 3.762C77.1123 3.762 77.4483 3.912 77.7063 4.212C77.9643 4.506 78.0933 4.956 78.0933 5.562C78.0933 5.88 78.0453 6.204 77.9493 6.534C77.8593 6.864 77.7333 7.182 77.5713 7.488C77.4153 7.794 77.2323 8.067 77.0223 8.307C76.8183 8.547 76.5993 8.739 76.3653 8.883C76.1373 9.021 75.9063 9.09 75.6723 9.09ZM75.3663 6.345C75.4023 6.393 75.4203 6.456 75.4203 6.534C75.4203 6.624 75.4023 6.714 75.3663 6.804C75.3363 6.894 75.3033 7.017 75.2673 7.173C75.2313 7.329 75.2133 7.551 75.2133 7.839C75.2133 8.127 75.3273 8.271 75.5553 8.271C75.8073 8.271 76.0413 8.172 76.2573 7.974C76.4733 7.77 76.6653 7.509 76.8333 7.191C77.0013 6.873 77.1303 6.534 77.2203 6.174C77.3163 5.808 77.3643 5.463 77.3643 5.139C77.3643 4.929 77.3253 4.782 77.2473 4.698C77.1693 4.608 77.0283 4.563 76.8243 4.563C76.6143 4.563 76.3953 4.635 76.1673 4.779C75.9453 4.917 75.7593 5.106 75.6093 5.346C75.4593 5.586 75.3843 5.856 75.3843 6.156C75.3843 6.222 75.3783 6.285 75.3663 6.345ZM81.9457 9.216C81.8437 9.216 81.7567 9.171 81.6847 9.081C81.6127 8.991 81.5767 8.859 81.5767 8.685C81.5767 8.481 81.6067 8.19 81.6667 7.812C81.7327 7.434 81.8287 6.933 81.9547 6.309C81.7927 6.693 81.6127 7.056 81.4147 7.398C81.2227 7.74 81.0187 8.019 80.8027 8.235C80.5867 8.451 80.3647 8.559 80.1367 8.559C79.9147 8.559 79.7167 8.472 79.5427 8.298C79.3747 8.124 79.2907 7.818 79.2907 7.38C79.2907 7.134 79.3117 6.858 79.3537 6.552C79.3957 6.24 79.4497 5.931 79.5157 5.625C79.5817 5.319 79.6477 5.046 79.7137 4.806C79.7797 4.56 79.8397 4.38 79.8937 4.266C79.9357 4.17 79.9777 4.107 80.0197 4.077C80.0617 4.041 80.1187 4.023 80.1907 4.023C80.2747 4.023 80.3647 4.059 80.4607 4.131C80.5567 4.203 80.6047 4.323 80.6047 4.491C80.6047 4.533 80.5837 4.632 80.5417 4.788C80.5057 4.938 80.4577 5.124 80.3977 5.346C80.3437 5.562 80.2867 5.796 80.2267 6.048C80.1667 6.3 80.1157 6.552 80.0737 6.804C80.0377 7.056 80.0197 7.287 80.0197 7.497C80.0197 7.611 80.0317 7.704 80.0557 7.776C80.0797 7.848 80.1397 7.884 80.2357 7.884C80.3197 7.884 80.4247 7.8 80.5507 7.632C80.6827 7.464 80.8237 7.242 80.9737 6.966C81.1297 6.684 81.2887 6.372 81.4507 6.03C81.6187 5.688 81.7807 5.337 81.9367 4.977C82.0987 4.617 82.2457 4.275 82.3777 3.951C82.4257 3.843 82.4767 3.777 82.5307 3.753C82.5847 3.723 82.6447 3.708 82.7107 3.708C82.8187 3.708 82.9147 3.753 82.9987 3.843C83.0887 3.927 83.1337 4.038 83.1337 4.176C83.1337 4.266 83.1157 4.422 83.0797 4.644C83.0497 4.866 83.0047 5.127 82.9447 5.427C82.8907 5.721 82.8277 6.033 82.7557 6.363C82.6897 6.693 82.6237 7.02 82.5577 7.344C82.4917 7.662 82.4287 7.953 82.3687 8.217C82.3147 8.481 82.2697 8.694 82.2337 8.856C82.2037 9.006 82.1617 9.102 82.1077 9.144C82.0597 9.192 82.0057 9.216 81.9457 9.216ZM92.3485 4.473C92.5105 4.083 92.6635 3.681 92.8075 3.267C92.9575 2.853 93.0925 2.43 93.2125 1.998C93.2485 1.878 93.3025 1.782 93.3745 1.71C93.4525 1.632 93.5425 1.593 93.6445 1.593C93.7165 1.593 93.7765 1.62 93.8245 1.674C93.8785 1.728 93.9055 1.8 93.9055 1.89C93.9055 2.004 93.8605 2.202 93.7705 2.484C93.6865 2.766 93.5785 3.123 93.4465 3.555C93.3205 3.987 93.1915 4.485 93.0595 5.049C92.9335 5.607 92.8255 6.225 92.7355 6.903C92.6515 7.581 92.6095 8.304 92.6095 9.072C92.6095 9.24 92.5735 9.378 92.5015 9.486C92.4295 9.6 92.3425 9.657 92.2405 9.657C92.1805 9.657 92.1235 9.642 92.0695 9.612C92.0155 9.582 91.9675 9.51 91.9255 9.396C91.8895 9.288 91.8595 9.117 91.8355 8.883C91.8115 8.643 91.7995 8.319 91.7995 7.911C91.7995 7.599 91.8175 7.26 91.8535 6.894C91.5775 7.392 91.2775 7.827 90.9535 8.199C90.6355 8.565 90.3265 8.847 90.0265 9.045C89.7325 9.243 89.4805 9.342 89.2705 9.342C89.0125 9.342 88.8025 9.255 88.6405 9.081C88.4845 8.913 88.4065 8.661 88.4065 8.325C88.4065 8.031 88.4755 7.728 88.6135 7.416C88.7515 7.104 88.9345 6.798 89.1625 6.498C89.3905 6.192 89.6425 5.904 89.9185 5.634C90.1945 5.364 90.4705 5.127 90.7465 4.923C91.0285 4.713 91.2895 4.551 91.5295 4.437C91.7695 4.317 91.9645 4.257 92.1145 4.257C92.1745 4.257 92.2285 4.278 92.2765 4.32C92.3245 4.362 92.3485 4.413 92.3485 4.473ZM92.2315 4.752C92.1895 4.794 92.1385 4.836 92.0785 4.878C92.0185 4.92 91.9525 4.965 91.8805 5.013C91.6165 5.199 91.3255 5.415 91.0075 5.661C90.6955 5.901 90.3955 6.165 90.1075 6.453C89.8255 6.735 89.5945 7.032 89.4145 7.344C89.2345 7.656 89.1445 7.977 89.1445 8.307C89.1445 8.451 89.2165 8.523 89.3605 8.523C89.5585 8.523 89.7745 8.43 90.0085 8.244C90.2485 8.052 90.4945 7.788 90.7465 7.452C90.9985 7.11 91.2505 6.711 91.5025 6.255C91.7545 5.793 91.9975 5.292 92.2315 4.752ZM97.2738 9.216C97.1718 9.216 97.0848 9.171 97.0128 9.081C96.9408 8.991 96.9048 8.859 96.9048 8.685C96.9048 8.481 96.9348 8.19 96.9948 7.812C97.0608 7.434 97.1568 6.933 97.2828 6.309C97.1208 6.693 96.9408 7.056 96.7428 7.398C96.5508 7.74 96.3468 8.019 96.1308 8.235C95.9148 8.451 95.6928 8.559 95.4648 8.559C95.2428 8.559 95.0448 8.472 94.8708 8.298C94.7028 8.124 94.6188 7.818 94.6188 7.38C94.6188 7.134 94.6398 6.858 94.6818 6.552C94.7238 6.24 94.7778 5.931 94.8438 5.625C94.9098 5.319 94.9758 5.046 95.0418 4.806C95.1078 4.56 95.1678 4.38 95.2218 4.266C95.2638 4.17 95.3058 4.107 95.3478 4.077C95.3898 4.041 95.4468 4.023 95.5188 4.023C95.6028 4.023 95.6928 4.059 95.7888 4.131C95.8848 4.203 95.9328 4.323 95.9328 4.491C95.9328 4.533 95.9118 4.632 95.8698 4.788C95.8338 4.938 95.7858 5.124 95.7258 5.346C95.6718 5.562 95.6148 5.796 95.5548 6.048C95.4948 6.3 95.4438 6.552 95.4018 6.804C95.3658 7.056 95.3478 7.287 95.3478 7.497C95.3478 7.611 95.3598 7.704 95.3838 7.776C95.4078 7.848 95.4678 7.884 95.5638 7.884C95.6478 7.884 95.7528 7.8 95.8788 7.632C96.0108 7.464 96.1518 7.242 96.3018 6.966C96.4578 6.684 96.6168 6.372 96.7788 6.03C96.9468 5.688 97.1088 5.337 97.2648 4.977C97.4268 4.617 97.5738 4.275 97.7058 3.951C97.7538 3.843 97.8048 3.777 97.8588 3.753C97.9128 3.723 97.9728 3.708 98.0388 3.708C98.1468 3.708 98.2428 3.753 98.3268 3.843C98.4168 3.927 98.4618 4.038 98.4618 4.176C98.4618 4.266 98.4438 4.422 98.4078 4.644C98.3778 4.866 98.3328 5.127 98.2728 5.427C98.2188 5.721 98.1558 6.033 98.0838 6.363C98.0178 6.693 97.9518 7.02 97.8858 7.344C97.8198 7.662 97.7568 7.953 97.6968 8.217C97.6428 8.481 97.5978 8.694 97.5618 8.856C97.5318 9.006 97.4898 9.102 97.4358 9.144C97.3878 9.192 97.3338 9.216 97.2738 9.216ZM100.315 8.793C100.141 8.793 99.9846 8.694 99.8466 8.496C99.7086 8.298 99.6396 8.043 99.6396 7.731C99.6396 7.389 99.6846 7.023 99.7746 6.633C99.8706 6.243 99.9876 5.847 100.126 5.445C100.264 5.037 100.399 4.644 100.531 4.266C100.561 4.188 100.603 4.131 100.657 4.095C100.717 4.053 100.807 4.032 100.927 4.032C101.143 4.032 101.251 4.137 101.251 4.347C101.251 4.395 101.227 4.503 101.179 4.671C101.131 4.839 101.068 5.046 100.99 5.292C100.918 5.538 100.843 5.805 100.765 6.093C100.687 6.375 100.618 6.66 100.558 6.948C100.498 7.236 100.456 7.503 100.432 7.749C100.528 7.647 100.636 7.491 100.756 7.281C100.882 7.071 101.017 6.834 101.161 6.57C101.305 6.3 101.455 6.03 101.611 5.76C101.767 5.484 101.923 5.232 102.079 5.004C102.241 4.77 102.397 4.584 102.547 4.446C102.703 4.302 102.847 4.23 102.979 4.23C103.171 4.23 103.333 4.29 103.465 4.41C103.603 4.524 103.708 4.728 103.78 5.022C103.858 5.31 103.897 5.718 103.897 6.246C103.897 6.528 103.924 6.792 103.978 7.038C104.038 7.284 104.131 7.482 104.257 7.632C104.389 7.776 104.557 7.848 104.761 7.848C105.067 7.848 105.34 7.794 105.58 7.686C105.82 7.572 106.027 7.446 106.201 7.308C106.381 7.164 106.531 7.038 106.651 6.93C106.771 6.816 106.864 6.759 106.93 6.759C107.068 6.759 107.137 6.831 107.137 6.975C107.137 7.035 107.092 7.131 107.002 7.263C106.918 7.389 106.798 7.533 106.642 7.695C106.492 7.851 106.318 8.004 106.12 8.154C105.928 8.298 105.721 8.418 105.499 8.514C105.283 8.61 105.064 8.658 104.842 8.658C104.428 8.658 104.089 8.577 103.825 8.415C103.567 8.253 103.375 7.986 103.249 7.614C103.129 7.242 103.069 6.744 103.069 6.12C103.069 5.778 103.048 5.529 103.006 5.373C102.97 5.211 102.901 5.103 102.799 5.049C102.727 5.175 102.634 5.355 102.52 5.589C102.406 5.817 102.274 6.072 102.124 6.354C101.98 6.636 101.827 6.921 101.665 7.209C101.509 7.491 101.35 7.752 101.188 7.992C101.026 8.232 100.87 8.427 100.72 8.577C100.57 8.721 100.435 8.793 100.315 8.793ZM110.825 9.477C110.435 9.477 110.075 9.384 109.745 9.198C109.421 9.012 109.127 8.772 108.863 8.478C108.605 8.184 108.374 7.869 108.17 7.533C107.972 7.191 107.801 6.87 107.657 6.57C107.555 7.056 107.474 7.449 107.414 7.749C107.36 8.049 107.315 8.277 107.279 8.433C107.249 8.589 107.219 8.694 107.189 8.748C107.159 8.802 107.12 8.829 107.072 8.829C106.94 8.829 106.814 8.757 106.694 8.613C106.574 8.469 106.514 8.283 106.514 8.055C106.514 7.815 106.556 7.497 106.64 7.101C106.724 6.699 106.835 6.255 106.973 5.769C107.117 5.277 107.282 4.77 107.468 4.248C107.654 3.72 107.846 3.207 108.044 2.709C108.248 2.205 108.452 1.746 108.656 1.332C108.758 1.128 108.845 0.996 108.917 0.936C108.995 0.876 109.088 0.846 109.196 0.846C109.37 0.846 109.457 0.927 109.457 1.089C109.457 1.149 109.439 1.215 109.403 1.287C109.373 1.359 109.34 1.44 109.304 1.53C109.196 1.794 109.076 2.091 108.944 2.421C108.818 2.751 108.689 3.096 108.557 3.456C108.431 3.816 108.311 4.173 108.197 4.527C108.083 4.881 107.984 5.208 107.9 5.508C108.158 5.328 108.461 5.148 108.809 4.968C109.157 4.788 109.517 4.626 109.889 4.482C110.261 4.332 110.612 4.212 110.942 4.122C111.272 4.032 111.545 3.987 111.761 3.987C111.875 3.987 111.962 4.023 112.022 4.095C112.088 4.161 112.121 4.236 112.121 4.32C112.121 4.386 112.1 4.452 112.058 4.518C112.022 4.578 111.944 4.632 111.824 4.68C111.428 4.818 111.035 4.959 110.645 5.103C110.255 5.241 109.847 5.391 109.421 5.553C109.001 5.709 108.542 5.895 108.044 6.111C108.2 6.375 108.383 6.66 108.593 6.966C108.803 7.266 109.028 7.551 109.268 7.821C109.508 8.085 109.754 8.304 110.006 8.478C110.258 8.646 110.51 8.73 110.762 8.73C111.092 8.73 111.41 8.661 111.716 8.523C112.022 8.385 112.304 8.217 112.562 8.019C112.826 7.821 113.057 7.629 113.255 7.443C113.453 7.251 113.609 7.101 113.723 6.993C113.783 6.939 113.837 6.903 113.885 6.885C113.939 6.861 113.987 6.849 114.029 6.849C114.113 6.849 114.17 6.894 114.2 6.984C114.236 7.068 114.206 7.161 114.11 7.263C114.038 7.347 113.927 7.476 113.777 7.65C113.627 7.824 113.444 8.016 113.228 8.226C113.018 8.43 112.784 8.628 112.526 8.82C112.274 9.012 112.001 9.168 111.707 9.288C111.419 9.414 111.125 9.477 110.825 9.477ZM117.979 9.045C117.865 9.045 117.763 9.003 117.673 8.919C117.583 8.829 117.538 8.691 117.538 8.505C117.538 8.373 117.556 8.19 117.592 7.956C117.628 7.716 117.676 7.455 117.736 7.173C117.796 6.891 117.859 6.612 117.925 6.336C117.997 6.054 118.069 5.802 118.141 5.58C118.213 5.358 118.276 5.193 118.33 5.085C118.378 5.001 118.423 4.947 118.465 4.923C118.513 4.899 118.558 4.887 118.6 4.887C118.684 4.887 118.756 4.914 118.816 4.968C118.882 5.022 118.915 5.127 118.915 5.283C118.915 5.373 118.897 5.523 118.861 5.733C118.831 5.937 118.789 6.177 118.735 6.453C118.687 6.723 118.633 7.002 118.573 7.29C118.519 7.572 118.465 7.842 118.411 8.1C118.357 8.358 118.315 8.574 118.285 8.748C118.261 8.844 118.219 8.919 118.159 8.973C118.105 9.021 118.045 9.045 117.979 9.045ZM118.861 4.068C118.723 4.068 118.591 4.026 118.465 3.942C118.345 3.858 118.285 3.723 118.285 3.537C118.285 3.381 118.321 3.255 118.393 3.159C118.471 3.063 118.561 2.994 118.663 2.952C118.771 2.904 118.864 2.88 118.942 2.88C119.02 2.88 119.107 2.898 119.203 2.934C119.305 2.964 119.392 3.024 119.464 3.114C119.536 3.198 119.572 3.324 119.572 3.492C119.572 3.606 119.533 3.708 119.455 3.798C119.377 3.882 119.281 3.948 119.167 3.996C119.059 4.044 118.957 4.068 118.861 4.068ZM120.89 8.793C120.716 8.793 120.56 8.694 120.422 8.496C120.284 8.298 120.215 8.043 120.215 7.731C120.215 7.389 120.26 7.023 120.35 6.633C120.446 6.243 120.563 5.847 120.701 5.445C120.839 5.037 120.974 4.644 121.106 4.266C121.136 4.188 121.178 4.131 121.232 4.095C121.292 4.053 121.382 4.032 121.502 4.032C121.718 4.032 121.826 4.137 121.826 4.347C121.826 4.395 121.802 4.503 121.754 4.671C121.706 4.839 121.643 5.046 121.565 5.292C121.493 5.538 121.418 5.805 121.34 6.093C121.262 6.375 121.193 6.66 121.133 6.948C121.073 7.236 121.031 7.503 121.007 7.749C121.103 7.647 121.211 7.491 121.331 7.281C121.457 7.071 121.592 6.834 121.736 6.57C121.88 6.3 122.03 6.03 122.186 5.76C122.342 5.484 122.498 5.232 122.654 5.004C122.816 4.77 122.972 4.584 123.122 4.446C123.278 4.302 123.422 4.23 123.554 4.23C123.746 4.23 123.908 4.29 124.04 4.41C124.178 4.524 124.283 4.728 124.355 5.022C124.433 5.31 124.472 5.718 124.472 6.246C124.472 6.528 124.499 6.792 124.553 7.038C124.613 7.284 124.706 7.482 124.832 7.632C124.964 7.776 125.132 7.848 125.336 7.848C125.642 7.848 125.915 7.794 126.155 7.686C126.395 7.572 126.602 7.446 126.776 7.308C126.956 7.164 127.106 7.038 127.226 6.93C127.346 6.816 127.439 6.759 127.505 6.759C127.643 6.759 127.712 6.831 127.712 6.975C127.712 7.035 127.667 7.131 127.577 7.263C127.493 7.389 127.373 7.533 127.217 7.695C127.067 7.851 126.893 8.004 126.695 8.154C126.503 8.298 126.296 8.418 126.074 8.514C125.858 8.61 125.639 8.658 125.417 8.658C125.003 8.658 124.664 8.577 124.4 8.415C124.142 8.253 123.95 7.986 123.824 7.614C123.704 7.242 123.644 6.744 123.644 6.12C123.644 5.778 123.623 5.529 123.581 5.373C123.545 5.211 123.476 5.103 123.374 5.049C123.302 5.175 123.209 5.355 123.095 5.589C122.981 5.817 122.849 6.072 122.699 6.354C122.555 6.636 122.402 6.921 122.24 7.209C122.084 7.491 121.925 7.752 121.763 7.992C121.601 8.232 121.445 8.427 121.295 8.577C121.145 8.721 121.01 8.793 120.89 8.793ZM138.488 8.73C138.482 8.826 138.443 8.904 138.371 8.964C138.299 9.024 138.215 9.054 138.119 9.054C138.011 9.054 137.921 9.018 137.849 8.946C137.777 8.874 137.741 8.763 137.741 8.613C137.741 8.223 137.759 7.8 137.795 7.344C137.831 6.882 137.876 6.426 137.93 5.976C137.984 5.52 138.038 5.1 138.092 4.716C137.894 4.998 137.678 5.31 137.444 5.652C137.216 5.994 136.982 6.333 136.742 6.669C136.502 7.005 136.268 7.314 136.04 7.596C135.812 7.872 135.605 8.097 135.419 8.271C135.233 8.439 135.08 8.523 134.96 8.523C134.738 8.523 134.546 8.436 134.384 8.262C134.222 8.082 134.141 7.857 134.141 7.587C134.141 7.479 134.153 7.332 134.177 7.146C134.201 6.954 134.228 6.753 134.258 6.543C134.288 6.333 134.315 6.138 134.339 5.958C134.363 5.772 134.375 5.634 134.375 5.544C134.375 5.46 134.366 5.388 134.348 5.328C134.336 5.262 134.306 5.229 134.258 5.229C134.186 5.229 134.087 5.31 133.961 5.472C133.835 5.628 133.694 5.829 133.538 6.075C133.388 6.321 133.232 6.582 133.07 6.858C132.914 7.134 132.767 7.395 132.629 7.641C132.491 7.881 132.374 8.07 132.278 8.208C132.2 8.34 132.128 8.436 132.062 8.496C131.996 8.556 131.915 8.586 131.819 8.586C131.705 8.586 131.6 8.526 131.504 8.406C131.414 8.286 131.369 8.139 131.369 7.965C131.369 7.863 131.387 7.704 131.423 7.488C131.459 7.266 131.504 7.023 131.558 6.759C131.618 6.495 131.675 6.237 131.729 5.985C131.789 5.727 131.84 5.508 131.882 5.328C131.93 5.124 131.99 4.986 132.062 4.914C132.134 4.842 132.212 4.806 132.296 4.806C132.41 4.806 132.5 4.848 132.566 4.932C132.638 5.01 132.674 5.133 132.674 5.301C132.674 5.331 132.656 5.412 132.62 5.544C132.584 5.67 132.539 5.826 132.485 6.012C132.437 6.192 132.383 6.381 132.323 6.579C132.269 6.777 132.224 6.96 132.188 7.128C132.32 6.906 132.458 6.666 132.602 6.408C132.752 6.15 132.902 5.895 133.052 5.643C133.202 5.385 133.352 5.151 133.502 4.941C133.652 4.725 133.799 4.554 133.943 4.428C134.087 4.302 134.225 4.239 134.357 4.239C134.513 4.239 134.657 4.287 134.789 4.383C134.927 4.479 135.038 4.608 135.122 4.77C135.206 4.932 135.248 5.112 135.248 5.31C135.248 5.448 135.224 5.643 135.176 5.895C135.128 6.141 135.077 6.408 135.023 6.696C134.975 6.984 134.945 7.257 134.933 7.515C134.933 7.575 134.951 7.605 134.987 7.605C135.017 7.605 135.053 7.584 135.095 7.542C135.269 7.35 135.461 7.119 135.671 6.849C135.881 6.573 136.094 6.282 136.31 5.976C136.532 5.67 136.751 5.37 136.967 5.076C137.183 4.776 137.384 4.506 137.57 4.266C137.762 4.02 137.93 3.825 138.074 3.681C138.224 3.537 138.341 3.465 138.425 3.465C138.605 3.465 138.743 3.516 138.839 3.618C138.935 3.72 138.983 3.891 138.983 4.131C138.983 4.323 138.968 4.572 138.938 4.878C138.914 5.184 138.881 5.517 138.839 5.877C138.803 6.237 138.761 6.6 138.713 6.966C138.671 7.326 138.629 7.662 138.587 7.974C138.545 8.28 138.512 8.532 138.488 8.73ZM140.584 9.045C140.47 9.045 140.368 9.003 140.278 8.919C140.188 8.829 140.143 8.691 140.143 8.505C140.143 8.373 140.161 8.19 140.197 7.956C140.233 7.716 140.281 7.455 140.341 7.173C140.401 6.891 140.464 6.612 140.53 6.336C140.602 6.054 140.674 5.802 140.746 5.58C140.818 5.358 140.881 5.193 140.935 5.085C140.983 5.001 141.028 4.947 141.07 4.923C141.118 4.899 141.163 4.887 141.205 4.887C141.289 4.887 141.361 4.914 141.421 4.968C141.487 5.022 141.52 5.127 141.52 5.283C141.52 5.373 141.502 5.523 141.466 5.733C141.436 5.937 141.394 6.177 141.34 6.453C141.292 6.723 141.238 7.002 141.178 7.29C141.124 7.572 141.07 7.842 141.016 8.1C140.962 8.358 140.92 8.574 140.89 8.748C140.866 8.844 140.824 8.919 140.764 8.973C140.71 9.021 140.65 9.045 140.584 9.045ZM141.466 4.068C141.328 4.068 141.196 4.026 141.07 3.942C140.95 3.858 140.89 3.723 140.89 3.537C140.89 3.381 140.926 3.255 140.998 3.159C141.076 3.063 141.166 2.994 141.268 2.952C141.376 2.904 141.469 2.88 141.547 2.88C141.625 2.88 141.712 2.898 141.808 2.934C141.91 2.964 141.997 3.024 142.069 3.114C142.141 3.198 142.177 3.324 142.177 3.492C142.177 3.606 142.138 3.708 142.06 3.798C141.982 3.882 141.886 3.948 141.772 3.996C141.664 4.044 141.562 4.068 141.466 4.068ZM144.467 9.36C144.005 9.36 143.642 9.21 143.378 8.91C143.12 8.604 142.991 8.178 142.991 7.632C142.991 7.296 143.036 6.903 143.126 6.453C143.222 5.997 143.342 5.517 143.486 5.013C143.636 4.503 143.798 3.999 143.972 3.501C144.146 3.003 144.314 2.541 144.476 2.115C144.644 1.683 144.791 1.323 144.917 1.035C144.989 0.872999 145.091 0.791999 145.223 0.791999C145.403 0.791999 145.493 0.902999 145.493 1.125C145.493 1.197 145.46 1.344 145.394 1.566C145.328 1.788 145.241 2.064 145.133 2.394C145.025 2.718 144.908 3.078 144.782 3.474C144.656 3.87 144.527 4.278 144.395 4.698C144.269 5.112 144.152 5.523 144.044 5.931C143.936 6.333 143.849 6.711 143.783 7.065C143.717 7.419 143.684 7.722 143.684 7.974C143.684 8.136 143.726 8.265 143.81 8.361C143.9 8.451 144.02 8.496 144.17 8.496C144.446 8.496 144.722 8.442 144.998 8.334C145.28 8.22 145.55 8.082 145.808 7.92C146.066 7.752 146.3 7.587 146.51 7.425C146.726 7.257 146.909 7.119 147.059 7.011C147.209 6.897 147.314 6.84 147.374 6.84C147.506 6.84 147.572 6.912 147.572 7.056C147.572 7.104 147.524 7.194 147.428 7.326C147.332 7.452 147.203 7.602 147.041 7.776C146.879 7.95 146.69 8.13 146.474 8.316C146.264 8.496 146.042 8.667 145.808 8.829C145.58 8.985 145.349 9.111 145.115 9.207C144.887 9.309 144.671 9.36 144.467 9.36ZM151.369 9.477C150.979 9.477 150.619 9.384 150.289 9.198C149.965 9.012 149.671 8.772 149.407 8.478C149.149 8.184 148.918 7.869 148.714 7.533C148.516 7.191 148.345 6.87 148.201 6.57C148.099 7.056 148.018 7.449 147.958 7.749C147.904 8.049 147.859 8.277 147.823 8.433C147.793 8.589 147.763 8.694 147.733 8.748C147.703 8.802 147.664 8.829 147.616 8.829C147.484 8.829 147.358 8.757 147.238 8.613C147.118 8.469 147.058 8.283 147.058 8.055C147.058 7.815 147.1 7.497 147.184 7.101C147.268 6.699 147.379 6.255 147.517 5.769C147.661 5.277 147.826 4.77 148.012 4.248C148.198 3.72 148.39 3.207 148.588 2.709C148.792 2.205 148.996 1.746 149.2 1.332C149.302 1.128 149.389 0.996 149.461 0.936C149.539 0.876 149.632 0.846 149.74 0.846C149.914 0.846 150.001 0.927 150.001 1.089C150.001 1.149 149.983 1.215 149.947 1.287C149.917 1.359 149.884 1.44 149.848 1.53C149.74 1.794 149.62 2.091 149.488 2.421C149.362 2.751 149.233 3.096 149.101 3.456C148.975 3.816 148.855 4.173 148.741 4.527C148.627 4.881 148.528 5.208 148.444 5.508C148.702 5.328 149.005 5.148 149.353 4.968C149.701 4.788 150.061 4.626 150.433 4.482C150.805 4.332 151.156 4.212 151.486 4.122C151.816 4.032 152.089 3.987 152.305 3.987C152.419 3.987 152.506 4.023 152.566 4.095C152.632 4.161 152.665 4.236 152.665 4.32C152.665 4.386 152.644 4.452 152.602 4.518C152.566 4.578 152.488 4.632 152.368 4.68C151.972 4.818 151.579 4.959 151.189 5.103C150.799 5.241 150.391 5.391 149.965 5.553C149.545 5.709 149.086 5.895 148.588 6.111C148.744 6.375 148.927 6.66 149.137 6.966C149.347 7.266 149.572 7.551 149.812 7.821C150.052 8.085 150.298 8.304 150.55 8.478C150.802 8.646 151.054 8.73 151.306 8.73C151.636 8.73 151.954 8.661 152.26 8.523C152.566 8.385 152.848 8.217 153.106 8.019C153.37 7.821 153.601 7.629 153.799 7.443C153.997 7.251 154.153 7.101 154.267 6.993C154.327 6.939 154.381 6.903 154.429 6.885C154.483 6.861 154.531 6.849 154.573 6.849C154.657 6.849 154.714 6.894 154.744 6.984C154.78 7.068 154.75 7.161 154.654 7.263C154.582 7.347 154.471 7.476 154.321 7.65C154.171 7.824 153.988 8.016 153.772 8.226C153.562 8.43 153.328 8.628 153.07 8.82C152.818 9.012 152.545 9.168 152.251 9.288C151.963 9.414 151.669 9.477 151.369 9.477Z" fill="#F5A82A"/>
</svg>
